<svg xmlns="http://www.w3.org/2000/svg" style="display:none" aria-hidden="true">
  <symbol id="ic-discord" viewBox="0 0 24 24" fill="none">
    <path d="M19 5.5c-1.3-.6-2.6-1-4-1.2l-.3.6c1.2.3 2.3.7 3.3 1.3-2.2-1-4.5-1.5-6.9-1.5s-4.7.5-6.9 1.5c1-.6 2.1-1 3.3-1.3l-.3-.6c-1.4.2-2.7.6-4 1.2C2 8.4 1.4 12.3 1.7 16.2c1.5 1.1 3 1.8 4.7 2.3l.6-1.3c-.8-.3-1.6-.6-2.3-1.1.2-.1.4-.3.6-.4 3.6 1.7 7.5 1.7 11 0 .2.1.4.3.6.4-.7.5-1.5.8-2.3 1.1l.6 1.3c1.7-.5 3.2-1.2 4.7-2.3.4-4.5-.7-8.3-3-10.7zM9 13.8c-.8 0-1.4-.8-1.4-1.7S8.2 10.4 9 10.4s1.5.8 1.4 1.7c0 .9-.6 1.7-1.4 1.7zm6 0c-.8 0-1.4-.8-1.4-1.7s.6-1.7 1.4-1.7 1.5.8 1.4 1.7c0 .9-.6 1.7-1.4 1.7z" fill="currentColor"/>
  </symbol>
  <symbol id="ic-facebook" viewBox="0 0 24 24" fill="none">
    <path d="M14.5 8.5h2V5.7c-.3 0-1.3-.1-2.5-.1-2.5 0-4 1.5-4 4.2v2.2H7.5v3h2.5V21h3v-5.9h2.5l.4-3h-2.9v-1.9c0-.9.2-1.7 1.5-1.7z" fill="currentColor"/>
  </symbol>
  <symbol id="ic-youtube" viewBox="0 0 24 24" fill="none">
    <path d="M21.6 8.2c-.2-1.4-.8-2.4-2.2-2.6C17 5.2 12 5.2 12 5.2s-5 0-7.4.4c-1.4.2-2 1.2-2.2 2.6C2.2 9.6 2.2 12 2.2 12s0 2.4.2 3.8c.2 1.4.8 2.4 2.2 2.6 2.4.4 7.4.4 7.4.4s5 0 7.4-.4c1.4-.2 2-1.2 2.2-2.6.2-1.4.2-3.8.2-3.8s0-2.4-.2-3.8zM10 15.5v-7l6 3.5-6 3.5z" fill="currentColor"/>
  </symbol>
  <symbol id="ic-tiktok" viewBox="0 0 24 24" fill="none">
    <path d="M16.5 3h-3v12.2c0 1.4-1.1 2.5-2.5 2.5S8.5 16.6 8.5 15.2c0-1.4 1.1-2.5 2.5-2.5.3 0 .6.05.9.15v-3.1c-.3-.04-.6-.07-.9-.07-3 0-5.5 2.4-5.5 5.5S8 20.7 11 20.7s5.5-2.4 5.5-5.5V9.4c1 .8 2.3 1.3 3.7 1.3V7.7c-2-.1-3.7-1.7-3.7-3.7V3z" fill="currentColor"/>
  </symbol>
  <symbol id="ic-github" viewBox="0 0 24 24" fill="none">
    <path d="M12 2.2c-5.5 0-10 4.5-10 10 0 4.4 2.9 8.1 6.8 9.5.5.1.7-.2.7-.5v-1.8c-2.8.6-3.4-1.2-3.4-1.2-.5-1.1-1.1-1.5-1.1-1.5-.9-.6.1-.6.1-.6 1 .1 1.5 1 1.5 1 .9 1.5 2.3 1.1 2.9.8.1-.7.3-1.1.6-1.4-2.2-.3-4.6-1.1-4.6-4.9 0-1.1.4-2 1-2.7-.1-.3-.5-1.3.1-2.6 0 0 .8-.3 2.7 1 .8-.2 1.6-.3 2.5-.3s1.7.1 2.5.3c1.9-1.3 2.7-1 2.7-1 .6 1.3.2 2.3.1 2.6.6.7 1 1.6 1 2.7 0 3.8-2.4 4.6-4.6 4.9.4.3.7 1 .7 2v2.9c0 .3.2.6.7.5 3.9-1.4 6.8-5.1 6.8-9.5 0-5.5-4.5-10-10-10z" fill="currentColor"/>
  </symbol>
</svg>
